<svg id="Logo_Layout" data-name="Logo Layout" xmlns="http://www.w3.org/2000/svg" viewBox="0 0 91.38 62.43"><defs><style>.cls-1{fill:#f15a24;}.cls-2{fill:#998675;}</style></defs><title>logo</title><g id="Sun"><path class="cls-1" d="M47.62,25.85A13.34,13.34,0,1,0,61,39.19,13.36,13.36,0,0,0,47.62,25.85Z" transform="translate(-16.81 -12.57)"/><path class="cls-1" d="M47.62,21.93a2.59,2.59,0,0,1-2.6-2.6V15.17a2.6,2.6,0,1,1,5.2,0v4.16A2.6,2.6,0,0,1,47.62,21.93Z" transform="translate(-16.81 -12.57)"/><path class="cls-1" d="M47.62,56.44A2.6,2.6,0,0,0,45,59v4.17a2.6,2.6,0,0,0,5.2,0V59A2.61,2.61,0,0,0,47.62,56.44Z" transform="translate(-16.81 -12.57)"/><path class="cls-1" d="M59.82,27a2.6,2.6,0,0,1,0-3.68l2.94-2.95A2.6,2.6,0,0,1,66.44,24L63.5,27A2.61,2.61,0,0,1,59.82,27Z" transform="translate(-16.81 -12.57)"/><path class="cls-1" d="M35.42,51.39a2.6,2.6,0,0,0-3.68,0l-2.95,2.94A2.6,2.6,0,1,0,32.47,58l3-2.94A2.61,2.61,0,0,0,35.42,51.39Z" transform="translate(-16.81 -12.57)"/><path class="cls-1" d="M64.87,39.19a2.6,2.6,0,0,1,2.6-2.6h4.17a2.6,2.6,0,1,1,0,5.2H67.47A2.61,2.61,0,0,1,64.87,39.19Z" transform="translate(-16.81 -12.57)"/><path class="cls-1" d="M30.36,39.19a2.59,2.59,0,0,0-2.6-2.6H23.6a2.6,2.6,0,1,0,0,5.2h4.16A2.6,2.6,0,0,0,30.36,39.19Z" transform="translate(-16.81 -12.57)"/><path class="cls-1" d="M59.82,51.39a2.6,2.6,0,0,1,3.68,0l2.94,2.94A2.6,2.6,0,0,1,62.76,58l-2.94-2.94A2.6,2.6,0,0,1,59.82,51.39Z" transform="translate(-16.81 -12.57)"/><path class="cls-1" d="M35.42,27a2.61,2.61,0,0,0,0-3.68l-3-2.95A2.6,2.6,0,0,0,28.79,24L31.74,27A2.61,2.61,0,0,0,35.42,27Z" transform="translate(-16.81 -12.57)"/></g><g id="Mountain"><path class="cls-2" d="M108.19,75H16.81l4.53-7.87L35.46,42.68c2.5-4.32,6.57-4.32,9.06,0,0,0,3.28,5.68,3.68,6.34L60.08,28.44c2.5-4.32,6.57-4.32,9.07,0L89,62.87c1-1.78,2-3.52,2.81-4.89,1.81-3.12,4.74-3.12,6.56,0s4.74,8.23,6.55,11.34Z" transform="translate(-16.81 -12.57)"/></g></svg>