<svg id="Layer_1" data-name="Layer 1" xmlns="http://www.w3.org/2000/svg" viewBox="0 0 75 75"><defs><style>.cls-1{fill:#f7931e;}</style></defs><title>sun</title><path class="cls-1" d="M37.5,18.72A18.79,18.79,0,1,0,56.28,37.5,18.8,18.8,0,0,0,37.5,18.72Z"/><path class="cls-1" d="M37.5,13.19a3.67,3.67,0,0,1-3.67-3.66V3.67a3.67,3.67,0,0,1,7.34,0V9.53A3.67,3.67,0,0,1,37.5,13.19Z"/><path class="cls-1" d="M37.5,61.81a3.67,3.67,0,0,0-3.67,3.66v5.86a3.67,3.67,0,0,0,7.34,0V65.47A3.67,3.67,0,0,0,37.5,61.81Z"/><path class="cls-1" d="M54.69,20.31a3.66,3.66,0,0,1,0-5.18L58.83,11A3.67,3.67,0,1,1,64,16.17l-4.15,4.14A3.66,3.66,0,0,1,54.69,20.31Z"/><path class="cls-1" d="M20.31,54.69a3.66,3.66,0,0,0-5.18,0L11,58.83A3.67,3.67,0,0,0,16.17,64l4.14-4.15A3.66,3.66,0,0,0,20.31,54.69Z"/><path class="cls-1" d="M61.81,37.5a3.67,3.67,0,0,1,3.66-3.67h5.86a3.67,3.67,0,1,1,0,7.33H65.47A3.66,3.66,0,0,1,61.81,37.5Z"/><path class="cls-1" d="M13.19,37.5a3.67,3.67,0,0,0-3.66-3.67H3.67a3.67,3.67,0,1,0,0,7.33H9.53A3.66,3.66,0,0,0,13.19,37.5Z"/><path class="cls-1" d="M54.69,54.69a3.66,3.66,0,0,1,5.18,0L64,58.84A3.67,3.67,0,1,1,58.83,64l-4.14-4.15A3.65,3.65,0,0,1,54.69,54.69Z"/><path class="cls-1" d="M20.31,20.31a3.66,3.66,0,0,0,0-5.18L16.17,11A3.67,3.67,0,0,0,11,16.17l4.15,4.14A3.65,3.65,0,0,0,20.31,20.31Z"/></svg>